<?xml version="1.0" encoding="UTF-8"?>
<svg width="360px" height="200px" viewBox="0 0 360 200" version="1.1" xmlns="http://www.w3.org/2000/svg" xmlns:xlink="http://www.w3.org/1999/xlink">
    <!-- Generator: Sketch 41.2 (35397) - http://www.bohemiancoding.com/sketch -->
    <title>Page 1</title>
    <desc>Created with Sketch.</desc>
    <defs></defs>
    <g id="Web" stroke="none" stroke-width="1" fill="none" fill-rule="evenodd">
        <g id="API" transform="translate(-540.000000, -80.000000)">
            <g id="Page-1" transform="translate(651.000000, 113.000000)">
                <g id="API-Settings_-1">
                    <g id="Group">
                        <path d="M133,59.11185 L103.676825,51.101925 L118.745725,24.708075 L108.298575,14.25095 L83.048525,28.66815 L73.88815,0 L59.11185,0 L50.33385,27.4778 L24.70475,14.25095 L14.254275,24.708075 L27.4778,50.337175 L0,59.11185 L0,73.88815 L27.474475,82.662825 L14.25095,108.291925 L24.701425,118.74905 L50.330525,105.5222 L59.11185,133 L73.88815,133 L82.662825,105.5222 L108.29525,118.74905 L118.7424,108.291925 L104.946975,81.54895 L133,73.88815 L133,59.11185 Z M66.5,96.055925 C50.17425,96.055925 36.944075,82.822425 36.944075,66.5 C36.944075,50.177575 50.17425,36.944075 66.5,36.944075 C82.822425,36.944075 96.055925,50.177575 96.055925,66.5 C96.055925,82.822425 82.822425,96.055925 66.5,96.055925 Z" id="Shape" fill="#455A64"></path>
                        <path d="M66.5,16.625 C38.9557,16.625 16.625,38.9557 16.625,66.5 C16.625,94.0443 38.9557,116.375 66.5,116.375 C94.0443,116.375 116.375,94.0443 116.375,66.5 C116.375,38.9557 94.0443,16.625 66.5,16.625 Z" id="Shape" fill="#78909C"></path>
                        <path d="M50.939,76.318725 L41.825175,76.318725 L40.05295,83.125 L32.984,83.125 L43.32475,49.875 L49.439425,49.875 L59.85,83.125 L52.71455,83.125 L50.939,76.318725 Z M43.281525,70.7294 L49.4627,70.7294 L46.37045,58.87245 L43.281525,70.7294 Z M96.425,83.125 L89.775,83.125 L89.775,49.875 L96.425,49.875 L96.425,83.125 Z M69.85825,71.4343 L69.85825,83.125 L63.175,83.125 L63.175,49.875 L74.450075,49.875 C77.721875,49.875 80.335325,50.89245 82.277125,52.934 C84.225575,54.97555 85.1998,57.625575 85.1998,60.88075 C85.1998,64.135925 84.23555,66.70615 82.3137,68.598075 C80.388525,70.49 77.721875,71.430975 74.31375,71.430975 L69.85825,71.430975 L69.85825,71.4343 Z M69.85825,65.835 L74.450075,65.835 C75.72355,65.835 76.70775,65.41605 77.406,64.581475 C78.100925,63.7469 78.45005,62.526625 78.45005,60.9273 C78.45005,59.27145 78.09095,57.951425 77.382725,56.960575 C76.66785,55.983025 75.713575,55.4876 74.5199,55.4743 L69.85825,55.4743 L69.85825,65.835 Z" id="Shape" fill="#FFFFFF"></path>
                    </g>
                </g>
            </g>
        </g>
    </g>
</svg>